<?xml version="1.0" encoding="UTF-8"?>
<svg xmlns="http://www.w3.org/2000/svg" version="1.0" viewBox="0 0 128.000000 128.000000" width="128.000000pt" height="128.000000pt"><g id="layer-01-000000" fill="#000000"><path d="M533 1085C450 1062 381 1022 319 961C135 777 135 493 319 309C382 246 450 208 537 185C690 145 854 192 971 309C1155 493 1155 777 971 961C853 1078 685 1126 533 1085ZM783 951C848 923 924 849 957 781C980 733 984 712 985 635C985 555 982 539 955 485C938 452 918 424 910 423C900 421 857 492 775 645C709 768 651 869 645 869C640 869 581 768 515 645C433 492 390 421 380 423C372 424 352 452 335 485C308 539 305 555 305 635C306 712 310 733 333 781C377 872 465 944 565 971C614 984 731 974 783 951ZM870 381C870 367 821 334 769 313C709 288 581 288 521 313C469 334 420 367 420 381C420 386 513 390 645 390C777 390 870 386 870 381Z" transform="translate(0.000000,128.000000) scale(0.100000,-0.100000)" /></g></svg>