<?xml version="1.0" encoding="UTF-8"?>
<svg xmlns="http://www.w3.org/2000/svg" version="1.1" width="128" height="128"><g id="layer-01-009e73" fill="#009e73"><path d="M0 0C2 1 2 1 2.66 2.68L13 42L23 42L23.79 18.5C24 16 24 16 25 15L49.42 14.87C52 15 52 15 53 16L54 42L100 43L100 83L-28 83L-28 43L-12 42L-1.54 2.68C-1 1 -1 1 0 0Z" transform="translate(28,45)" /></g><g id="layer-02-cc79a7" fill="#cc79a7"><path d="M0 0L18.46 0C21.03 0.13 21.03 0.13 22.03 1.13L22.16 25.56C22.03 28.13 22.03 28.13 21.03 29.13L-3.39 29.26C-5.97 29.13 -5.97 29.13 -6.97 28.13L-7.1 3.71C-6.86 -1.12 -4.24 0 0 0Z" transform="translate(58.96875,59.8671875)" /></g><g id="layer-03-d55e00" fill="#d55e00"><path d="M0 0C2 1 2 1 2.66 2.66L12.72 40.21C13 42 13 42 12 44L-11 44C-12.27 41.47 -11.85 40.72 -11.12 38.03L-1.54 2.66C-1 1 -1 1 0 0Z" transform="translate(28,45)" /></g><g id="layer-04-f0e442" fill="#f0e442"><path d="M0 0C5.88 5.26 8.92 10.38 9.38 18.31C9.19 24.46 7.28 29.46 3.16 34.05C-2.56 39.35 -7.82 41.54 -15.64 41.3C-23.04 40.35 -28.05 36.76 -32.62 31C-36.22 25.76 -36.8 20.19 -36 14C-34.09 6.79 -30.09 2.18 -24 -2C-16.03 -5.9 -7.31 -4.77 0 0Z" transform="translate(108,16)" /></g></svg>