<?xml version="1.0" encoding="UTF-8"?>
<svg xmlns="http://www.w3.org/2000/svg" version="1.1" width="70" height="70"><g id="layer-01-5a0014" fill="#5a0014"><path d="M0 0L14 0L14 6L13 6L13 7L0 7L0 13L-1 13L-1 14L-7 14L-7 35L-1 35L-1 36L0 36L0 42L6 42L6 43L7 43L7 49L13 49L13 50L14 50L14 56L28 56L28 50L29 50L29 49L35 49L35 43L36 43L36 42L42 42L42 36L43 36L43 35L49 35L49 15L50 15L50 14L56 14L56 35L50 35L50 36L49 36L49 41L48 41L48 42L43 42L43 43L42 43L42 48L41 48L41 49L36 49L36 50L35 50L35 55L34 55L34 56L29 56L29 57L28 57L28 62L27 62L27 63L15 63L15 62L14 62L14 57L13 57L13 56L8 56L8 55L7 55L7 50L6 50L6 49L1 49L1 48L0 48L0 43L-1 43L-1 42L-6 42L-6 41L-7 41L-7 36L-8 36L-8 35L-14 35L-14 14L-8 14L-8 13L-7 13L-7 8L-6 8L-6 7L-1 7L-1 6L0 6Z" transform="translate(14,0)" /><path d="M0 0L14 0L14 6L13 6L13 7L8 7L8 8L7 8L7 13L6 13L6 14L-6 14L-6 13L-7 13L-7 8L-6 8L-6 7L-1 7L-1 6L0 6Z" transform="translate(42,0)" /></g><g id="layer-02-dc283c" fill="#dc283c"><path d="M0 0L14 0L14 6L15 6L15 7L27 7L27 6L28 6L28 0L42 0L42 6L43 6L43 7L48 7L48 8L49 8L49 13L50 13L50 14L56 14L56 35L50 35L50 36L49 36L49 41L48 41L48 42L43 42L43 43L42 43L42 48L41 48L41 49L36 49L36 50L35 50L35 55L34 55L34 56L29 56L29 57L28 57L28 62L27 62L27 63L15 63L15 62L14 62L14 57L13 57L13 56L8 56L8 55L7 55L7 50L6 50L6 49L1 49L1 48L0 48L0 43L-1 43L-1 42L-6 42L-6 41L-7 41L-7 36L-8 36L-8 35L-14 35L-14 14L-8 14L-8 13L-7 13L-7 8L-6 8L-6 7L-1 7L-1 6L0 6Z" transform="translate(14,0)" /><path d="M0 0L1 0L1 1L0 1Z" transform="translate(42,56)" /><path d="M0 0L1 0L1 1L0 1Z" transform="translate(27,56)" /><path d="M0 0L1 0L1 1L0 1Z" transform="translate(49,49)" /><path d="M0 0L1 0L1 1L0 1Z" transform="translate(20,49)" /><path d="M0 0L1 0L1 1L0 1Z" transform="translate(56,42)" /><path d="M0 0L1 0L1 1L0 1Z" transform="translate(13,42)" /><path d="M0 0L1 0L1 1L0 1Z" transform="translate(63,35)" /><path d="M0 0L1 0L1 1L0 1Z" transform="translate(6,35)" /><path d="M0 0L1 0L1 1L0 1Z" transform="translate(6,13)" /><path d="M0 0L1 0L1 1L0 1Z" transform="translate(13,6)" /></g><g id="layer-03-ff96a0" fill="#ff96a0"><path d="M0 0L12 0L12 1L13 1L13 13L12 13L12 14L0 14L0 13L-1 13L-1 1L0 1Z" transform="translate(15,14)" /></g></svg>