<?xml version="1.0" encoding="UTF-8"?>
<svg xmlns="http://www.w3.org/2000/svg" version="1.0" viewBox="0 0 128.000000 128.000000" width="128.000000pt" height="128.000000pt"><g id="layer-01-000000" fill="#000000"><path d="M533 1106C355 1063 208 911 171 732C101 396 406 91 742 161C926 199 1081 354 1119 538C1190 879 872 1188 533 1106ZM792 968C871 932 934 870 973 791C1002 732 1005 717 1005 634C1005 550 1002 538 970 474C951 436 928 404 920 402C909 400 868 474 780 651C711 789 652 904 648 906C644 909 583 796 513 655C423 475 381 400 370 402C362 404 339 436 320 474C288 538 285 550 285 634C285 711 289 733 311 781C358 880 439 952 543 986C608 1007 724 999 792 968ZM850 339C850 334 824 317 793 302C743 279 722 275 645 275C568 275 547 279 498 302C466 317 440 334 440 339C440 347 508 350 645 350C782 350 850 347 850 339Z" transform="translate(0.000000,128.000000) scale(0.100000,-0.100000)" /></g></svg>