<?xml version="1.0" encoding="UTF-8"?>
<svg xmlns="http://www.w3.org/2000/svg" version="1.1" width="64" height="64"><g id="layer-01-1e1e1e" fill="#1e1e1e"><path d="M0 0L2 0L2 1L3 1L3 3L2 3L2 4L0 4L0 3L-1 3L-1 1L0 1Z" transform="translate(37,24)" /><path d="M0 0L2 0L2 1L3 1L3 3L2 3L2 4L0 4L0 3L-1 3L-1 1L0 1Z" transform="translate(25,24)" /></g><g id="layer-02-c83c3c" fill="#c83c3c"><path d="M0 0L14 0L14 1L15 1L15 3L14 3L14 4L0 4L0 3L-1 3L-1 1L0 1Z" transform="translate(25,40)" /></g><g id="layer-03-f0c828" fill="#f0c828"><path d="M0 0L38 0L38 1L39 1L39 39L38 39L38 40L0 40L0 39L-1 39L-1 1L0 1Z" transform="translate(13,12)" /></g></svg>